#!OML:ASF H:\LiuWeirdWalks\Patient Classification 1\Patient 1\Session 1\male.ASF
:FULLY-SPECIFIED
:DEGREES
661
root 2.30662 17.9134 -7.47325 3.07237 2.7715 3.40399
lowerback 2.20177 -4.24031 -5.00064
upperback -1.35379 -5.77901 2.19537
thorax -1.90955 -2.80479 5.2502
lowerneck -14.795 1.25537 5.92127
upperneck 21.2711 1.34986 -4.67526
head 9.19607 0.589947 -2.43594
rclavicle 7.09164e-014 7.95139e-016
rhumerus -48.0809 -13.9819 -68.5639
rradius 25.9387
rwrist -4.2968
rhand -16.3214 -4.12908
rfingers 7.12502
rthumb 9.8901 -33.8768
lclavicle 7.09164e-014 7.95139e-016
lhumerus -25.7373 -0.218097 87.1523
lradius 29.1286
lwrist 9.87845
lhand -10.5342 -0.384848
lfingers 7.12502
lthumb 15.4691 29.0162
rfemur -29.5067 0.125512 16.0416
rtibia 22.5052
rfoot -9.35412 -17.3592
rtoes -14.1841
lfemur 14.2753 -1.95798 -28.4999
ltibia 9.30541
lfoot -5.35841 10.2086
ltoes -19.2825
662
root 2.29578 17.923 -7.38962 3.13761 2.61135 3.39939
lowerback 2.21129 -4.15616 -4.97863
upperback -1.36177 -5.66582 2.229
thorax -1.93605 -2.74723 5.27266
lowerneck -14.8071 1.26188 5.92134
upperneck 21.1567 1.35732 -4.68069
head 9.15917 0.592274 -2.43514
rclavicle -5.59082e-015 1.59028e-014
rhumerus -47.9496 -14.1425 -68.3794
rradius 25.7649
rwrist -4.11484
rhand -16.3194 -4.10523
rfingers 7.12502
rthumb 9.89202 -33.8528
lclavicle -5.59082e-015 1.59028e-014
lhumerus -25.8952 0.0689584 87.1168
lradius 29.0397
lwrist 9.87416
lhand -10.5646 -0.369196
lfingers 7.12502
lthumb 15.4399 29.0341
rfemur -29.4457 -0.0526681 16.1495
rtibia 22.71
rfoot -9.16491 -17.178
rtoes -14.3083
lfemur 14.3791 -1.85365 -28.4409
ltibia 9.42868
lfoot -5.05783 9.93706
ltoes -19.7316
663
root 2.28394 17.9327 -7.30451 3.18057 2.45239 3.44576
lowerback 2.23601 -4.07582 -5.02193
upperback -1.35639 -5.56077 2.2454
thorax -1.95198 -2.69353 5.31422
lowerneck -14.8392 1.26857 5.90557
upperneck 21.0716 1.36343 -4.66479
head 9.13592 0.594952 -2.42497
rclavicle 6.95746e-015 8.74653e-015
rhumerus -47.8033 -14.3391 -68.1902
rradius 25.5866
rwrist -3.91836
rhand -16.3379 -4.10395
rfingers 7.12502
rthumb 9.87414 -33.8524
lclavicle 6.95746e-015 8.74653e-015
lhumerus -26.0487 0.353612 87.0646
lradius 28.9554
lwrist 9.83685
lhand -10.5644 -0.369829
lfingers 7.12502
lthumb 15.4401 29.0335
rfemur -29.3644 -0.228665 16.1969
rtibia 22.9289
rfoot -9.018 -16.9307
rtoes -14.488
lfemur 14.5497 -1.75187 -28.4249
ltibia 9.46943
lfoot -4.71069 9.60136
ltoes -20.2485
664
root 2.27082 17.9425 -7.21807 3.20548 2.31309 3.50838
lowerback 2.26582 -4.00339 -5.09386
upperback -1.34151 -5.46748 2.25667
thorax -1.95757 -2.64592 5.36645
lowerneck -14.879 1.27152 5.8667
upperneck 20.9941 1.36767 -4.63966
head 9.11637 0.595863 -2.4081
rclavicle -2.30839e-014 7.95139e-015
rhumerus -47.6566 -14.5057 -68.0371
rradius 25.4433
rwrist -3.79713
rhand -16.3767 -4.12015
rfingers 7.12502
rthumb 9.83676 -33.8704
lclavicle -2.30839e-014 7.95139e-015
lhumerus -26.2098 0.619006 87.0095
lradius 28.8838
lwrist 9.79447
lhand -10.5359 -0.355822
lfingers 7.12502
lthumb 15.4676 29.0454
rfemur -29.2548 -0.394765 16.22
rtibia 23.1353
rfoot -8.87715 -16.6277
rtoes -14.738
lfemur 14.7594 -1.67086 -28.4104
ltibia 9.47136
lfoot -4.33815 9.21522
ltoes -20.8305
665
root 2.25689 17.9527 -7.13004 3.21543 2.21238 3.57073
lowerback 2.2983 -3.94971 -5.17363
upperback -1.32058 -5.3996 2.26748
thorax -1.95471 -2.61134 5.42284
lowerneck -14.9017 1.2854 5.84413
upperneck 20.9294 1.38741 -4.62776
head 9.09917 0.604128 -2.39683
rclavicle -6.67171e-014 1.74931e-014
rhumerus -47.5032 -14.6631 -67.9028
rradius 25.3108
rwrist -3.70167
rhand -16.4299 -4.14072
rfingers 7.12502
rthumb 9.78545 -33.8934
lclavicle -6.67171e-014 1.74931e-014
lhumerus -26.3863 0.861649 86.9488
lradius 28.8333
lwrist 9.76124
lhand -10.4925 -0.321835
lfingers 7.12502
lthumb 15.5093 29.0761
rfemur -29.1057 -0.574594 16.2409
rtibia 23.3138
rfoot -8.71173 -16.2496
rtoes -15.029
lfemur 14.9855 -1.62871 -28.3803
ltibia 9.47713
lfoot -3.9578 8.79087
ltoes -21.4598
